<svg width="92" height="22" viewBox="0 0 92 22" fill="none" xmlns="http://www.w3.org/2000/svg">
<g clip-path="url(#clip0_626_4304)">
<path d="M31.2075 0V8.41095C32.0775 6.8393 34.5128 5.97782 36.0751 5.97782C40.4009 5.97782 43.6158 8.68884 43.6158 13.9256C43.6158 19.1624 40.3407 21.8765 35.9848 21.8765C34.1817 21.8765 32.3514 21.2589 31.2075 19.4434L30.9667 21.5399H27.541V0H31.2045H31.2075ZM31.4483 13.9256C31.4483 16.6675 33.4321 18.3935 35.744 18.3935C38.0559 18.3935 39.9493 16.5749 39.9493 13.9256C39.9493 11.2764 38.086 9.48856 35.744 9.48856C33.402 9.48856 31.4483 11.2764 31.4483 13.9256Z" fill="white"/>
<path d="M58.0627 6.3483H61.5787V21.5399H58.1229L57.9423 19.3198C57.1025 21.1076 54.7876 21.9691 53.1349 21.9999C48.749 22.0308 45.5039 19.258 45.5039 13.9286C45.5039 8.59924 48.8995 5.94998 53.2252 5.98086C55.209 5.98086 57.0994 6.93496 57.9423 8.44486L58.0627 6.3483ZM49.1704 13.9286C49.1704 16.8249 51.1241 18.551 53.5564 18.551C59.324 18.551 59.324 9.33721 53.5564 9.33721C51.1241 9.33721 49.1704 11.0324 49.1704 13.9286Z" fill="white"/>
<path d="M75.8428 6.3483V8.13609L69.0246 17.8408H75.903V21.5368H63.4375V19.9651L70.5267 9.76641H63.9793V6.34521H75.8458L75.8428 6.3483Z" fill="white"/>
<path d="M81.6693 0V12.4466L86.6574 6.34526H91.0433V6.5614L85.0047 13.4933L91.8832 21.2589V21.5368H87.4671L81.6693 14.6667V21.5368H78.0059V0H81.6693Z" fill="white"/>
<path d="M0 11.0139L10.7105 22H21.418L10.7105 11.0139H0Z" fill="#12D97C"/>
<path d="M21.418 0.0308838H10.7105H0L10.7105 11.0139L21.418 0.0308838Z" fill="#12D97C"/>
</g>
<defs>
<clipPath id="clip0_626_4304">
<rect width="91.8824" height="22" fill="white"/>
</clipPath>
</defs>
</svg>
